<?xml version="1.0" encoding="UTF-8"?>
<svg width="505px" height="134px" viewBox="0 0 505 134" version="1.1" xmlns="http://www.w3.org/2000/svg" xmlns:xlink="http://www.w3.org/1999/xlink">
    <title>Logo Soken</title>
    <g id="Page-1" stroke="none" stroke-width="1" fill="none" fill-rule="evenodd">
        <g id="Artboard" transform="translate(-348.000000, -333.000000)">
            <g id="Logo-Soken" transform="translate(348.000000, 333.000000)">
                <path d="M165.3527,100 C175.1104,100 182.5812,98.1046 187.7649,94.3137 C192.9487,90.5229 195.5406,85.0545 195.5406,77.9085 C195.5406,71.4597 193.7546,66.5795 190.1826,63.268 C186.6106,59.9564 180.8169,57.6471 172.8016,56.3399 C169.3167,55.7298 166.4635,55.1416 164.2419,54.5752 C162.0202,54.0087 160.2778,53.3987 159.0145,52.7451 C157.7512,52.0915 156.88,51.3508 156.4008,50.5229 C155.9216,49.695 155.6821,48.7146 155.6821,47.5817 C155.6821,45.1416 156.7493,43.3551 158.8838,42.2222 C161.0183,41.0893 164.4379,40.5229 169.1425,40.5229 C173.063,40.5229 176.7657,40.8061 180.2506,41.3725 C182.9576,41.8125 185.8485,42.5286 188.9235,43.5207 C190.243,43.9464 191.6201,42.9805 191.6201,41.594 L191.6201,32.1004 C191.6201,31.269 191.1071,30.5203 190.3208,30.2497 C187.4816,29.2728 184.4952,28.5578 181.3614,28.1046 C177.7459,27.5817 173.5422,27.3203 168.7504,27.3203 C159.4283,27.3203 152.3061,29.1939 147.38364,32.9412 C142.46121,36.6885 140,42.0044 140,48.8889 C140,55.0763 141.9167,59.7386 145.75009,62.8758 C149.58348,66.0131 155.4643,68.2789 163.3924,69.6732 C166.6159,70.1961 169.2732,70.719 171.3641,71.2418 C173.4551,71.7647 175.1104,72.3747 176.3301,73.0719 C177.5498,73.7691 178.3993,74.5752 178.8784,75.4902 C179.3576,76.4052 179.5972,77.5163 179.5972,78.8235 C179.5972,81.6122 178.4211,83.6601 176.0687,84.9673 C173.7164,86.2745 169.883,86.9281 164.5686,86.9281 C160.3867,86.9281 156.183,86.4488 151.9576,85.4902 C148.81185,84.7765 145.79892,83.8214 142.91878,82.6247 C141.55325,82.0574 140,83.0314 140,84.5101 L140,94.3867 C140,95.177 140.463524,95.8979 141.19778,96.1902 C144.08704,97.3405 147.47761,98.2401 151.3695,98.8889 C155.8127,99.6296 160.4738,100 165.3527,100 Z M240.496,100 C245.985,100 250.907,99.1285 255.263,97.3856 C259.619,95.6427 263.322,93.1808 266.371,90 C269.421,86.8192 271.773,82.963 273.428,78.4314 C275.084,73.8998 275.911,68.8453 275.911,63.268 C275.911,57.7778 275.105,52.8105 273.494,48.366 C271.882,43.9216 269.573,40.1307 266.567,36.9935 C263.562,33.8562 259.902,31.4597 255.59,29.8039 C251.277,28.1481 246.42,27.3203 241.019,27.3203 C235.5299,27.3203 230.6075,28.1917 226.2513,29.9346 C221.8952,31.6776 218.1925,34.1394 215.1432,37.3203 C212.0939,40.5011 209.7634,44.3573 208.1516,48.8889 C206.5399,53.4205 205.734,58.4749 205.734,64.0523 C205.734,69.6296 206.5181,74.6405 208.0863,79.085 C209.6545,83.5294 211.9415,87.2985 214.9472,90.3922 C217.9529,93.4858 221.6121,95.8606 225.9246,97.5163 C230.2372,99.1721 235.0943,100 240.496,100 Z M240.757,86.1438 C235.0072,86.1438 230.4332,84.2048 227.0354,80.3268 C223.6377,76.4488 221.9388,70.8932 221.9388,63.6601 C221.9388,56.5142 223.6377,50.9804 227.0354,47.0588 C230.4332,43.1373 235.0072,41.1765 240.757,41.1765 C246.594,41.1765 251.19,43.1155 254.544,46.9935 C257.899,50.8715 259.576,56.427 259.576,63.6601 C259.576,70.8061 257.899,76.3399 254.544,80.2614 C251.19,84.183 246.594,86.1438 240.757,86.1438 Z M305.014,98.0392 C306.119,98.0392 307.014,97.1438 307.014,96.0392 L307.014,71.8039 C307.014,70.6994 307.909,69.8039 309.014,69.8039 L313.156,69.8039 C315.596,69.8039 317.643,70.305 319.298,71.3072 C320.954,72.3094 322.478,74.0305 323.872,76.4706 L336.486,97.0832 C336.85,97.6771 337.496,98.0392 338.192,98.0392 L352.219,98.0392 C353.775,98.0392 354.735,96.34 353.932,95.007 L338.509,69.4118 C336.517,66.2368 334.503,63.9512 332.467,62.5552 C331.696,62.0263 331.683,60.5591 332.469,60.0522 C333.493,59.3918 334.439,58.5901 335.307,57.6471 C336.832,55.9913 338.335,54.0741 339.816,51.8954 L352.873,32.5298 C353.768,31.2015 352.816,29.4118 351.214,29.4118 L338.122,29.4118 C337.464,29.4118 336.848,29.7354 336.475,30.2774 L324.918,47.0588 C324.046,48.366 323.219,49.5207 322.435,50.5229 C321.651,51.5251 320.823,52.3747 319.952,53.0719 C319.08,53.7691 318.1,54.2919 317.011,54.6405 C315.922,54.9891 314.594,55.1634 313.025,55.1634 L309.014,55.1634 C307.909,55.1634 307.014,54.268 307.014,53.1634 L307.014,2 C307.014,0.895429 306.119,0 305.014,0 L292.809,0 C291.705,0 290.809,0.895431 290.809,2 L290.809,96.0392 C290.809,97.1438 291.705,98.0392 292.809,98.0392 L305.014,98.0392 Z M398.362,100 C400.889,100 403.241,99.9129 405.419,99.7386 C407.597,99.5643 409.666,99.3246 411.626,99.0196 C413.587,98.7146 415.503,98.3007 417.376,97.7778 C418.818,97.3753 420.273,96.9212 421.741,96.4154 C422.536,96.1414 423.061,95.3879 423.061,94.547 L423.061,85.2946 C423.061,83.883 421.638,82.9148 420.306,83.3818 C417.573,84.34 414.963,85.0646 412.476,85.5556 C409.165,86.2092 405.375,86.5359 401.106,86.5359 C394.311,86.5359 389.127,85.0545 385.555,82.0915 C382.45,79.5163 380.399,75.822 379.4,71.0085 C379.155,69.8249 380.094,68.7582 381.303,68.7582 L424.449,68.7582 C425.506,68.7582 426.383,67.937 426.42,66.8815 C426.446,66.1434 426.459,65.4182 426.459,64.7059 L426.459,60.5229 C426.459,49.3682 423.802,41.0458 418.487,35.5556 C413.173,30.0654 405.811,27.3203 396.402,27.3203 C391.174,27.3203 386.47,28.2135 382.288,30 C378.106,31.7865 374.578,34.2919 371.702,37.5163 C368.827,40.7407 366.628,44.6187 365.103,49.1503 C363.578,53.6819 362.816,58.6928 362.816,64.183 C362.816,75.512 365.822,84.3137 371.833,90.5882 C377.845,96.8627 386.688,100 398.362,100 Z M410.885,55.1678 C411.002,56.3019 410.086,57.2549 408.945,57.2549 L381.625,57.2549 C380.395,57.2549 379.45,56.1529 379.727,54.9548 C380.731,50.6063 382.5,47.2772 385.032,44.9673 C387.994,42.2658 391.697,40.915 396.14,40.915 C400.584,40.915 404.112,42.2004 406.726,44.7712 C409.012,47.0199 410.398,50.4855 410.885,55.1678 Z M455.692,98.0392 C456.797,98.0392 457.692,97.1438 457.692,96.0392 L457.692,49.9197 C457.692,49.4245 457.874,48.9447 458.215,48.5858 C460.513,46.1679 463.018,44.3517 465.729,43.1373 C468.648,41.8301 471.632,41.1765 474.681,41.1765 C479.299,41.1765 482.806,42.4619 485.201,45.0327 C487.597,47.6035 488.795,51.634 488.795,57.1242 L488.795,96.0392 C488.795,97.1438 489.691,98.0392 490.795,98.0392 L503,98.0392 C504.105,98.0392 505,97.1438 505,96.0392 L505,55.817 C505,46.4924 502.866,39.4118 498.596,34.5752 C494.327,29.7386 487.663,27.3203 478.602,27.3203 C474.333,27.3203 470.325,28.0174 466.579,29.4118 C463.946,30.3917 461.485,31.7375 459.197,33.4492 C457.927,34.3986 456.008,33.7594 455.721,32.2002 L455.51,31.0505 C455.336,30.1012 454.509,29.4118 453.543,29.4118 L443.488,29.4118 C442.383,29.4118 441.488,30.3072 441.488,31.4118 L441.488,96.0392 C441.488,97.1438 442.383,98.0392 443.488,98.0392 L455.692,98.0392 Z" id="Shape" fill="#262943" fill-rule="nonzero"></path>
                <path d="M75.4628,107.214 C77.432,106.513 79.358,108.864 78.0655,110.506 C71.2624,119.154 63.5248,127.035 55.0048,133.998 C55.0035,133.999 55.0018,134 55,134 L55,134 C54.9982,134 54.9966,133.999 54.9952,133.998 C46.4766,127.036 38.7403,119.157 31.9377,110.511 C30.6452,108.869 32.5702,106.519 34.5394,107.219 C40.9331,109.493 47.8191,110.731 54.9947,110.731 C62.1752,110.731 69.0656,109.491 75.4628,107.214 Z M54.996,0 L56.592,0.0123838 L57.602,0.0334377 L58.3382,0.0545298 C59.6447,0.0975568 60.9447,0.165453 62.2379,0.25787 L63.207,0.331102 C80.0219,1.69621 95.6608,7.21383 109.092,15.8555 C109.654,16.2169 109.991,16.8395 109.995,17.5073 L110,18.2063 C110,22.4174 109.826,26.5878 109.484,30.7109 C109.352,32.298 107.488,33.0656 106.217,32.1059 C91.973,21.3508 74.2301,14.9721 54.9947,14.9721 C45.0255,14.9721 35.4571,16.6855 26.5691,19.8333 C24.3986,20.602 25.3258,23.6412 27.6222,23.4741 C30.0572,23.2969 32.5164,23.2067 34.9966,23.2067 C62.3541,23.2067 87.1455,34.1741 105.199,51.9447 C105.692,52.4297 105.891,53.1383 105.727,53.8098 C105.105,56.3537 104.417,58.8717 103.666,61.3622 C98.4807,83.4038 78.6575,99.8139 54.9947,99.8139 C44.0469,99.8139 33.9209,96.3012 25.6861,90.3433 C25.6842,90.3419 25.6838,90.3392 25.6852,90.3373 L25.6852,90.3373 C25.6867,90.3354 25.6862,90.3327 25.6843,90.3313 C19.2237,85.82 14.9986,78.3374 14.9986,69.8698 C14.9986,56.0883 26.1904,44.9163 39.9962,44.9163 C53.802,44.9163 64.9938,56.0883 64.9938,69.8698 C64.9938,73.6092 64.1698,77.1565 62.6931,80.3407 C61.9475,81.9486 63.2361,83.9133 64.936,83.4116 C76.6084,79.9666 85.7383,70.6081 88.8442,58.8119 C89.0362,58.0826 88.7709,57.313 88.1825,56.8412 C73.6214,45.1644 55.1262,38.1788 34.9966,38.1788 C24.3054,38.1788 14.0751,40.1494 4.65059,43.7465 C3.45653,44.2023 2.12501,43.4763 1.92094,42.2146 C1.2361,37.9806 0.729445,33.6857 0.408943,29.3391 C0.137923,25.6638 0,21.9511 0,18.2063 C0,17.9701 0,17.7341 0.00164436,17.4982 C0.00473057,16.8338 0.341985,16.2155 0.900666,15.8559 C12.0157,8.70235 24.6443,3.69038 38.2004,1.40181 L38.8818,1.2891 L40.1141,1.09845 L40.4531,1.04805 L41.9471,0.842063 L42.062,0.827457 L43.5297,0.64905 L43.6853,0.631822 L45.1742,0.475114 L46.7375,0.335874 L47.109,0.306429 L48.4049,0.213473 L48.5473,0.204619 L49.9715,0.123921 L50.2747,0.109795 L51.4846,0.0608865 L51.88,0.0479107 L53.1429,0.0174674 L53.3759,0.0129758 L54.137,0.00363748 L54.5645,0 L54.996,0 Z M39.9962,59.8884 C34.4738,59.8884 29.9971,64.3572 29.9971,69.8698 C29.9971,75.3823 34.4738,79.8511 39.9962,79.8511 C45.5185,79.8511 49.9952,75.3823 49.9952,69.8698 C49.9952,64.3572 45.5185,59.8884 39.9962,59.8884 Z" id="Shape" fill="#313EC2"></path>
            </g>
        </g>
    </g>
</svg>